<svg xmlns="http://www.w3.org/2000/svg" viewBox="0 0 800 200" width="800" height="200">
  <defs>
    <clipPath id="clipR"><rect width="800" height="200" rx="16"/></clipPath>
    <linearGradient id="linen" x1="0%" y1="0%" x2="100%" y2="100%">
      <stop offset="0%" stop-color="#f3ecdc"/><stop offset="100%" stop-color="#e6dcc6"/>
    </linearGradient>
    <pattern id="weave" width="3" height="3" patternUnits="userSpaceOnUse">
      <rect width="3" height="1" fill="#8a7458" opacity="0.04"/>
      <rect width="1" height="3" fill="#8a7458" opacity="0.035"/>
    </pattern>
    <pattern id="llengues" width="56" height="56" patternUnits="userSpaceOnUse" x="0" y="-6">
      <rect width="56" height="56" fill="#efe6d2"/>
      <rect x="27.25" width="1.5" height="56" fill="#5d7a4c" opacity="0.5"/>
      <rect x="55.25" width="1.5" height="56" fill="#5d7a4c" opacity="0.5"/>
      <g>
        <polygon fill="#2c4775" points="14.0,0.0 14.0,1.6 13.3,1.6 13.3,3.2 11.7,3.2 11.7,4.8 11.2,4.8 11.2,6.4 8.2,6.4 8.2,8.0 10.0,8.0 10.0,9.6 8.9,9.6 8.9,11.2 7.0,11.2 7.0,12.8 5.5,12.8 5.5,14.4 7.2,14.4 7.2,16.0 3.5,16.0 3.5,17.6 6.2,17.6 6.2,19.2 3.2,19.2 3.2,20.8 2.1,20.8 2.1,22.4 3.3,22.4 3.3,24.0 2.3,24.0 2.3,25.6 2.1,25.6 2.1,27.2 2.3,27.2 2.3,28.8 4.2,28.8 4.2,30.4 3.6,30.4 3.6,32.0 5.0,32.0 5.0,33.6 2.1,33.6 2.1,35.2 4.6,35.2 4.6,36.8 5.8,36.8 5.8,38.4 5.8,38.4 5.8,40.0 4.5,40.0 4.5,41.6 7.2,41.6 7.2,43.2 6.5,43.2 6.5,44.8 5.5,44.8 5.5,46.4 9.0,46.4 9.0,48.0 7.6,48.0 7.6,49.6 10.4,49.6 10.4,51.2 10.2,51.2 10.2,52.8 11.7,52.8 11.7,54.4 12.8,54.4 12.8,56.0 14.0,56.0 14.0,56.0 14.0,56.0 14.0,56.0 15.0,56.0 15.0,54.4 17.3,54.4 17.3,52.8 17.1,52.8 17.1,51.2 18.9,51.2 18.9,49.6 19.4,49.6 19.4,48.0 19.7,48.0 19.7,46.4 19.9,46.4 19.9,44.8 21.9,44.8 21.9,43.2 23.5,43.2 23.5,41.6 23.1,41.6 23.1,40.0 24.0,40.0 24.0,38.4 23.5,38.4 23.5,36.8 25.0,36.8 25.0,35.2 23.9,35.2 23.9,33.6 26.0,33.6 26.0,32.0 23.8,32.0 23.8,30.4 25.2,30.4 25.2,28.8 23.3,28.8 23.3,27.2 24.8,27.2 24.8,25.6 23.8,25.6 23.8,24.0 24.5,24.0 24.5,22.4 23.2,22.4 23.2,20.8 23.5,20.8 23.5,19.2 22.9,19.2 22.9,17.6 23.0,17.6 23.0,16.0 20.5,16.0 20.5,14.4 23.1,14.4 23.1,12.8 21.6,12.8 21.6,11.2 18.2,11.2 18.2,9.6 18.9,9.6 18.9,8.0 16.6,8.0 16.6,6.4 18.4,6.4 18.4,4.8 16.2,4.8 16.2,3.2 14.7,3.2 14.7,1.6 14.0,1.6 14.0,0.0"/><polygon fill="#e0ad52" points="14.0,9.0 14.0,10.6 12.4,10.7 12.4,12.3 13.0,12.3 13.0,13.9 11.8,14.0 11.8,15.6 10.9,15.6 10.9,17.2 10.2,17.3 10.2,18.9 9.3,18.9 9.3,20.5 9.6,20.6 9.6,22.2 9.8,22.2 9.8,23.8 8.2,23.9 8.2,25.5 6.9,25.5 6.9,27.1 7.9,27.2 7.9,28.8 7.7,28.8 7.7,30.4 8.2,30.5 8.2,32.1 7.6,32.1 7.6,33.7 8.2,33.8 8.2,35.4 9.0,35.4 9.0,37.0 9.9,37.1 9.9,38.7 11.1,38.7 11.1,40.3 11.3,40.4 11.3,42.0 12.1,42.0 12.1,43.6 11.8,43.7 11.8,45.3 13.6,45.3 13.6,46.9 14.0,47.0 14.0,47.0 14.0,47.0 14.0,47.0 14.6,46.9 14.6,45.3 17.0,45.3 17.0,43.7 17.4,43.6 17.4,42.0 18.4,42.0 18.4,40.4 18.7,40.3 18.7,38.7 17.7,38.7 17.7,37.1 20.3,37.0 20.3,35.4 18.4,35.4 18.4,33.8 18.4,33.7 18.4,32.1 20.0,32.1 20.0,30.5 21.0,30.4 21.0,28.8 19.5,28.8 19.5,27.2 18.7,27.1 18.7,25.5 19.1,25.5 19.1,23.9 19.5,23.8 19.5,22.2 20.3,22.2 20.3,20.6 18.2,20.5 18.2,18.9 17.1,18.9 17.1,17.3 17.6,17.2 17.6,15.6 16.1,15.6 16.1,14.0 16.4,13.9 16.4,12.3 14.5,12.3 14.5,10.7 14.0,10.6 14.0,9.0"/><polygon fill="#b24a3a" points="14.0,17.0 14.0,18.6 13.1,18.7 13.1,20.3 12.8,20.4 12.8,22.0 11.2,22.1 11.2,23.7 11.2,23.8 11.2,25.4 12.3,25.5 12.3,27.1 11.8,27.2 11.8,28.8 11.5,28.8 11.5,30.4 11.6,30.5 11.6,32.1 11.7,32.2 11.7,33.8 12.4,33.9 12.4,35.5 12.9,35.6 12.9,37.2 13.1,37.3 13.1,38.9 14.0,39.0 14.0,39.0 14.0,39.0 14.0,39.0 14.4,38.9 14.4,37.3 15.5,37.2 15.5,35.6 15.2,35.5 15.2,33.9 16.8,33.8 16.8,32.2 17.3,32.1 17.3,30.5 16.2,30.4 16.2,28.8 16.7,28.8 16.7,27.2 16.6,27.1 16.6,25.5 15.9,25.4 15.9,23.8 16.5,23.7 16.5,22.1 14.9,22.0 14.9,20.4 14.8,20.3 14.8,18.7 14.0,18.6 14.0,17.0"/>
        <polygon fill="#b24a3a" points="42.0,-28.0 42.0,-26.4 41.4,-26.4 41.4,-24.8 40.5,-24.8 40.5,-23.2 37.0,-23.2 37.0,-21.6 39.3,-21.6 39.3,-20.0 38.3,-20.0 38.3,-18.4 35.9,-18.4 35.9,-16.8 35.3,-16.8 35.3,-15.2 32.7,-15.2 32.7,-13.6 33.0,-13.6 33.0,-12.0 34.1,-12.0 34.1,-10.4 33.7,-10.4 33.7,-8.8 32.6,-8.8 32.6,-7.2 30.0,-7.2 30.0,-5.6 30.4,-5.6 30.4,-4.0 33.0,-4.0 33.0,-2.4 30.3,-2.4 30.3,-0.8 31.2,-0.8 31.2,0.8 29.9,0.8 29.9,2.4 31.8,2.4 31.8,4.0 32.7,4.0 32.7,5.6 31.0,5.6 31.0,7.2 30.5,7.2 30.5,8.8 31.5,8.8 31.5,10.4 30.9,10.4 30.9,12.0 32.6,12.0 32.6,13.6 34.9,13.6 34.9,15.2 33.8,15.2 33.8,16.8 35.9,16.8 35.9,18.4 37.7,18.4 37.7,20.0 37.7,20.0 37.7,21.6 36.0,21.6 36.0,23.2 38.2,23.2 38.2,24.8 37.9,24.8 37.9,26.4 40.0,26.4 40.0,28.0 42.0,28.0 42.0,28.0 42.0,28.0 42.0,28.0 44.3,28.0 44.3,26.4 42.7,26.4 42.7,24.8 45.6,24.8 45.6,23.2 47.3,23.2 47.3,21.6 48.4,21.6 48.4,20.0 46.3,20.0 46.3,18.4 47.2,18.4 47.2,16.8 49.5,16.8 49.5,15.2 50.1,15.2 50.1,13.6 50.1,13.6 50.1,12.0 52.0,12.0 52.0,10.4 52.2,10.4 52.2,8.8 50.6,8.8 50.6,7.2 51.3,7.2 51.3,5.6 52.0,5.6 52.0,4.0 54.6,4.0 54.6,2.4 54.6,2.4 54.6,0.8 53.6,0.8 53.6,-0.8 54.6,-0.8 54.6,-2.4 54.1,-2.4 54.1,-4.0 51.5,-4.0 51.5,-5.6 53.5,-5.6 53.5,-7.2 50.5,-7.2 50.5,-8.8 50.0,-8.8 50.0,-10.4 49.6,-10.4 49.6,-12.0 51.7,-12.0 51.7,-13.6 48.5,-13.6 48.5,-15.2 49.1,-15.2 49.1,-16.8 47.1,-16.8 47.1,-18.4 45.8,-18.4 45.8,-20.0 46.8,-20.0 46.8,-21.6 45.2,-21.6 45.2,-23.2 45.9,-23.2 45.9,-24.8 44.3,-24.8 44.3,-26.4 42.0,-26.4 42.0,-28.0"/><polygon fill="#efe6d2" points="42.0,-19.0 42.0,-17.4 41.0,-17.3 41.0,-15.7 39.0,-15.7 39.0,-14.1 39.3,-14.0 39.3,-12.4 38.3,-12.4 38.3,-10.8 37.4,-10.7 37.4,-9.1 38.1,-9.1 38.1,-7.5 37.1,-7.4 37.1,-5.8 35.8,-5.8 35.8,-4.2 37.1,-4.1 37.1,-2.5 36.9,-2.5 36.9,-0.9 36.9,-0.8 36.9,0.8 35.0,0.8 35.0,2.4 36.9,2.5 36.9,4.1 35.3,4.1 35.3,5.7 37.0,5.8 37.0,7.4 38.2,7.4 38.2,9.0 36.7,9.1 36.7,10.7 37.7,10.7 37.7,12.3 39.7,12.4 39.7,14.0 39.8,14.0 39.8,15.6 40.9,15.7 40.9,17.3 40.4,17.3 40.4,18.9 42.0,19.0 42.0,19.0 42.0,19.0 42.0,19.0 42.8,18.9 42.8,17.3 45.0,17.3 45.0,15.7 45.1,15.6 45.1,14.0 45.4,14.0 45.4,12.4 47.1,12.3 47.1,10.7 46.9,10.7 46.9,9.1 47.2,9.0 47.2,7.4 46.8,7.4 46.8,5.8 46.9,5.7 46.9,4.1 47.7,4.1 47.7,2.5 48.8,2.4 48.8,0.8 47.6,0.8 47.6,-0.8 48.4,-0.9 48.4,-2.5 47.1,-2.5 47.1,-4.1 47.5,-4.2 47.5,-5.8 47.5,-5.8 47.5,-7.4 46.3,-7.5 46.3,-9.1 46.7,-9.1 46.7,-10.7 46.0,-10.8 46.0,-12.4 45.3,-12.4 45.3,-14.0 44.2,-14.1 44.2,-15.7 42.7,-15.7 42.7,-17.3 42.0,-17.4 42.0,-19.0"/><polygon fill="#2c4775" points="42.0,-11.0 42.0,-9.4 41.3,-9.3 41.3,-7.7 40.6,-7.6 40.6,-6.0 39.3,-5.9 39.3,-4.3 38.8,-4.2 38.8,-2.6 38.6,-2.5 38.6,-0.9 39.1,-0.8 39.1,0.8 38.5,0.8 38.5,2.4 39.6,2.5 39.6,4.1 39.8,4.2 39.8,5.8 40.9,5.9 40.9,7.5 41.0,7.6 41.0,9.2 41.0,9.3 41.0,10.9 42.0,11.0 42.0,11.0 42.0,11.0 42.0,11.0 42.5,10.9 42.5,9.3 43.1,9.2 43.1,7.6 43.1,7.5 43.1,5.9 44.2,5.8 44.2,4.2 45.4,4.1 45.4,2.5 44.3,2.4 44.3,0.8 45.4,0.8 45.4,-0.8 43.9,-0.9 43.9,-2.5 44.2,-2.6 44.2,-4.2 43.9,-4.3 43.9,-5.9 43.2,-6.0 43.2,-7.6 42.5,-7.7 42.5,-9.3 42.0,-9.4 42.0,-11.0"/>
        <polygon fill="#b24a3a" points="42.0,28.0 42.0,29.6 41.4,29.6 41.4,31.2 40.5,31.2 40.5,32.8 37.0,32.8 37.0,34.4 39.3,34.4 39.3,36.0 38.3,36.0 38.3,37.6 35.9,37.6 35.9,39.2 35.3,39.2 35.3,40.8 32.7,40.8 32.7,42.4 33.0,42.4 33.0,44.0 34.1,44.0 34.1,45.6 33.7,45.6 33.7,47.2 32.6,47.2 32.6,48.8 30.0,48.8 30.0,50.4 30.4,50.4 30.4,52.0 33.0,52.0 33.0,53.6 30.3,53.6 30.3,55.2 31.2,55.2 31.2,56.8 29.9,56.8 29.9,58.4 31.8,58.4 31.8,60.0 32.7,60.0 32.7,61.6 31.0,61.6 31.0,63.2 30.5,63.2 30.5,64.8 31.5,64.8 31.5,66.4 30.9,66.4 30.9,68.0 32.6,68.0 32.6,69.6 34.9,69.6 34.9,71.2 33.8,71.2 33.8,72.8 35.9,72.8 35.9,74.4 37.7,74.4 37.7,76.0 37.7,76.0 37.7,77.6 36.0,77.6 36.0,79.2 38.2,79.2 38.2,80.8 37.9,80.8 37.9,82.4 40.0,82.4 40.0,84.0 42.0,84.0 42.0,84.0 42.0,84.0 42.0,84.0 44.3,84.0 44.3,82.4 42.7,82.4 42.7,80.8 45.6,80.8 45.6,79.2 47.3,79.2 47.3,77.6 48.4,77.6 48.4,76.0 46.3,76.0 46.3,74.4 47.2,74.4 47.2,72.8 49.5,72.8 49.5,71.2 50.1,71.2 50.1,69.6 50.1,69.6 50.1,68.0 52.0,68.0 52.0,66.4 52.2,66.4 52.2,64.8 50.6,64.8 50.6,63.2 51.3,63.2 51.3,61.6 52.0,61.6 52.0,60.0 54.6,60.0 54.6,58.4 54.6,58.4 54.6,56.8 53.6,56.8 53.6,55.2 54.6,55.2 54.6,53.6 54.1,53.6 54.1,52.0 51.5,52.0 51.5,50.4 53.5,50.4 53.5,48.8 50.5,48.8 50.5,47.2 50.0,47.2 50.0,45.6 49.6,45.6 49.6,44.0 51.7,44.0 51.7,42.4 48.5,42.4 48.5,40.8 49.1,40.8 49.1,39.2 47.1,39.2 47.1,37.6 45.8,37.6 45.8,36.0 46.8,36.0 46.8,34.4 45.2,34.4 45.2,32.8 45.9,32.8 45.9,31.2 44.3,31.2 44.3,29.6 42.0,29.6 42.0,28.0"/><polygon fill="#efe6d2" points="42.0,37.0 42.0,38.6 41.0,38.7 41.0,40.3 39.0,40.3 39.0,41.9 39.3,42.0 39.3,43.6 38.3,43.6 38.3,45.2 37.4,45.3 37.4,46.9 38.1,46.9 38.1,48.5 37.1,48.6 37.1,50.2 35.8,50.2 35.8,51.8 37.1,51.9 37.1,53.5 36.9,53.5 36.9,55.1 36.9,55.2 36.9,56.8 35.0,56.8 35.0,58.4 36.9,58.5 36.9,60.1 35.3,60.1 35.3,61.7 37.0,61.8 37.0,63.4 38.2,63.4 38.2,65.0 36.7,65.1 36.7,66.7 37.7,66.7 37.7,68.3 39.7,68.4 39.7,70.0 39.8,70.0 39.8,71.6 40.9,71.7 40.9,73.3 40.4,73.3 40.4,74.9 42.0,75.0 42.0,75.0 42.0,75.0 42.0,75.0 42.8,74.9 42.8,73.3 45.0,73.3 45.0,71.7 45.1,71.6 45.1,70.0 45.4,70.0 45.4,68.4 47.1,68.3 47.1,66.7 46.9,66.7 46.9,65.1 47.2,65.0 47.2,63.4 46.8,63.4 46.8,61.8 46.9,61.7 46.9,60.1 47.7,60.1 47.7,58.5 48.8,58.4 48.8,56.8 47.6,56.8 47.6,55.2 48.4,55.1 48.4,53.5 47.1,53.5 47.1,51.9 47.5,51.8 47.5,50.2 47.5,50.2 47.5,48.6 46.3,48.5 46.3,46.9 46.7,46.9 46.7,45.3 46.0,45.2 46.0,43.6 45.3,43.6 45.3,42.0 44.2,41.9 44.2,40.3 42.7,40.3 42.7,38.7 42.0,38.6 42.0,37.0"/><polygon fill="#2c4775" points="42.0,45.0 42.0,46.6 41.3,46.7 41.3,48.3 40.6,48.4 40.6,50.0 39.3,50.1 39.3,51.7 38.8,51.8 38.8,53.4 38.6,53.5 38.6,55.1 39.1,55.2 39.1,56.8 38.5,56.8 38.5,58.4 39.6,58.5 39.6,60.1 39.8,60.2 39.8,61.8 40.9,61.9 40.9,63.5 41.0,63.6 41.0,65.2 41.0,65.3 41.0,66.9 42.0,67.0 42.0,67.0 42.0,67.0 42.0,67.0 42.5,66.9 42.5,65.3 43.1,65.2 43.1,63.6 43.1,63.5 43.1,61.9 44.2,61.8 44.2,60.2 45.4,60.1 45.4,58.5 44.3,58.4 44.3,56.8 45.4,56.8 45.4,55.2 43.9,55.1 43.9,53.5 44.2,53.4 44.2,51.8 43.9,51.7 43.9,50.1 43.2,50.0 43.2,48.4 42.5,48.3 42.5,46.7 42.0,46.6 42.0,45.0"/>
      </g>
    </pattern>
    <filter id="ikatBleed" x="-2%" y="-2%" width="104%" height="104%"><feGaussianBlur stdDeviation="0.5"/></filter>
  </defs>
  <g clip-path="url(#clipR)">
    <rect width="800" height="200" fill="url(#linen)"/>
    <rect x="0" y="0" width="140" height="200" fill="url(#llengues)" filter="url(#ikatBleed)"/>
    <rect x="660" y="0" width="140" height="200" fill="url(#llengues)" filter="url(#ikatBleed)"/>
    <g>
      <rect x="140" y="0" width="4" height="200" fill="#b24a3a"/>
      <rect x="147" y="0" width="1.5" height="200" fill="#2c4775"/>
      <rect x="151" y="0" width="1.5" height="200" fill="#e0ad52"/>
      <rect x="656" y="0" width="4" height="200" fill="#b24a3a"/>
      <rect x="651.5" y="0" width="1.5" height="200" fill="#2c4775"/>
      <rect x="647.5" y="0" width="1.5" height="200" fill="#e0ad52"/>
    </g>
    <rect width="800" height="200" fill="url(#weave)"/>
    <text x="400" y="100" text-anchor="middle" font-family="system-ui, -apple-system, 'Segoe UI', Helvetica, Arial, sans-serif" font-size="36" fill="#1c2640" font-weight="700" letter-spacing="0.5">awesome-illes-balears</text>
    <g fill="#2c4775">
      <polygon points="400,112 406,117 400,122 394,117" fill="#b24a3a"/>
      <rect x="350" y="116.25" width="36" height="1.5" rx="0.75"/>
      <rect x="414" y="116.25" width="36" height="1.5" rx="0.75"/>
    </g>
    <text x="400" y="142" text-anchor="middle" font-family="system-ui, -apple-system, 'Segoe UI', Helvetica, Arial, sans-serif" font-size="12" fill="#5a3f33" font-weight="500" letter-spacing="2.4">SOFTWARE OPEN SOURCE PER A LES ILLES BALEARS</text>
  </g>
</svg>
